<svg width="88" height="38" viewBox="0 0 88 38" fill="none" xmlns="http://www.w3.org/2000/svg">
<g clip-path="url(#clip0_1239_401)">
<path d="M29.4144 22.8996H27.9914V16.0878H29.4144V17.2659H29.3733C29.4008 17.1221 29.5021 16.9424 29.6776 16.7266C29.8532 16.5109 30.0943 16.3173 30.4015 16.1459C30.7086 15.9744 31.076 15.8886 31.5037 15.8886C31.8163 15.8886 32.0905 15.9329 32.3262 16.0214C32.5676 16.1044 32.7375 16.1873 32.8362 16.2703L32.2522 17.4651C32.1754 17.3876 32.0411 17.3102 31.8492 17.2328C31.6572 17.1498 31.4186 17.1083 31.1335 17.1083C30.7716 17.1083 30.4618 17.2216 30.2041 17.4485C29.9463 17.6753 29.7489 17.9491 29.6118 18.2699C29.4802 18.5852 29.4144 18.8784 29.4144 19.1493V22.8996ZM38.6734 23.0987C37.977 23.0987 37.3573 22.9411 36.8144 22.6258C36.2769 22.3105 35.8548 21.8845 35.5477 21.348C35.2405 20.8059 35.087 20.1948 35.087 19.5144C35.087 18.8341 35.2405 18.2201 35.5477 17.6725C35.8548 17.1249 36.2769 16.6906 36.8144 16.3699C37.3573 16.0491 37.977 15.8886 38.6734 15.8886C39.3643 15.8886 39.9758 16.0491 40.5077 16.3699C41.0451 16.6906 41.4646 17.1249 41.7662 17.6725C42.0677 18.2201 42.2186 18.8341 42.2186 19.5144C42.2186 20.1948 42.0677 20.8059 41.7662 21.348C41.4646 21.8845 41.0451 22.3105 40.5077 22.6258C39.9758 22.9411 39.3643 23.0987 38.6734 23.0987ZM38.6734 21.8624C39.1121 21.8624 39.4931 21.7601 39.8167 21.5555C40.1457 21.3509 40.4007 21.0714 40.5817 20.7175C40.7627 20.3579 40.8531 19.9542 40.8531 19.5061C40.8531 19.0581 40.7627 18.6544 40.5817 18.2948C40.4007 17.9352 40.1457 17.6504 39.8167 17.4402C39.4931 17.2299 39.1121 17.1249 38.6734 17.1249C38.2292 17.1249 37.8426 17.2299 37.5136 17.4402C37.1846 17.6504 36.9268 17.9352 36.7404 18.2948C36.5594 18.6544 36.4689 19.0581 36.4689 19.5061C36.4689 19.9542 36.5594 20.3579 36.7404 20.7175C36.9268 21.0714 37.1846 21.3509 37.5136 21.5555C37.8426 21.7601 38.2292 21.8624 38.6734 21.8624ZM47.2271 22.8996H45.7876V11.483H47.2271V22.8996ZM54.3474 23.0987C53.651 23.0987 53.0313 22.9411 52.4884 22.6258C51.9511 22.3105 51.5289 21.8845 51.2217 21.348C50.9147 20.8059 50.7611 20.1948 50.7611 19.5144C50.7611 18.8341 50.9147 18.2201 51.2217 17.6725C51.5289 17.1249 51.9511 16.6906 52.4884 16.3699C53.0313 16.0491 53.651 15.8886 54.3474 15.8886C55.0383 15.8886 55.6498 16.0491 56.1817 16.3699C56.7191 16.6906 57.1386 17.1249 57.4402 17.6725C57.7419 18.2201 57.8926 18.8341 57.8926 19.5144C57.8926 20.1948 57.7419 20.8059 57.4402 21.348C57.1386 21.8845 56.7191 22.3105 56.1817 22.6258C55.6498 22.9411 55.0383 23.0987 54.3474 23.0987ZM54.3474 21.8624C54.7862 21.8624 55.1673 21.7601 55.4907 21.5555C55.8198 21.3509 56.0748 21.0714 56.2557 20.7175C56.4367 20.3579 56.5272 19.9542 56.5272 19.5061C56.5272 19.0581 56.4367 18.6544 56.2557 18.2948C56.0748 17.9352 55.8198 17.6504 55.4907 17.4402C55.1673 17.2299 54.7862 17.1249 54.3474 17.1249C53.9032 17.1249 53.5166 17.2299 53.1876 17.4402C52.8586 17.6504 52.601 17.9352 52.4144 18.2948C52.2335 18.6544 52.143 19.0581 52.143 19.5061C52.143 19.9542 52.2335 20.3579 52.4144 20.7175C52.601 21.0714 52.8586 21.3509 53.1876 21.5555C53.5166 21.7601 53.9032 21.8624 54.3474 21.8624ZM64.6369 26.5419C64.1048 26.5419 63.6223 26.4867 63.1892 26.376C62.7614 26.2653 62.3857 26.1077 62.0623 25.9031C61.7441 25.7039 61.4891 25.4688 61.2973 25.1978L62.235 24.2935C62.3391 24.4373 62.479 24.5893 62.6545 24.7498C62.8355 24.9157 63.0794 25.0568 63.3866 25.1729C63.6936 25.2891 64.094 25.3472 64.5875 25.3472C65.07 25.3472 65.4785 25.2421 65.8131 25.0319C66.1476 24.8273 66.4025 24.5478 66.5781 24.1939C66.7534 23.8399 66.8413 23.4417 66.8413 22.9991V22.7751H68.2396V23.0904C68.2396 23.8426 68.0778 24.4732 67.7543 24.9821C67.4362 25.4965 67.0058 25.8836 66.4629 26.1437C65.92 26.4092 65.3114 26.5419 64.6369 26.5419ZM66.8413 22.8996V21.5721C66.7974 21.7103 66.6686 21.9011 66.4547 22.1445C66.2463 22.388 65.9584 22.6092 65.591 22.8083C65.2291 23.0019 64.8014 23.0987 64.3078 23.0987C63.6827 23.0987 63.1151 22.9493 62.6052 22.6507C62.1006 22.352 61.6976 21.9343 61.396 21.3978C61.0999 20.8557 60.9518 20.2225 60.9518 19.4978C60.9518 18.7732 61.0999 18.1426 61.396 17.6061C61.6976 17.064 62.1006 16.6437 62.6052 16.345C63.1151 16.0408 63.6827 15.8886 64.3078 15.8886C64.7958 15.8886 65.2181 15.9771 65.5746 16.1542C65.9365 16.3312 66.2244 16.5358 66.4382 16.7681C66.6575 17.0004 66.7863 17.1996 66.8248 17.3655V16.0878H68.2396V22.8996H66.8413ZM62.3666 19.4978C62.3666 19.9902 62.4735 20.416 62.6874 20.7755C62.9013 21.1351 63.1782 21.4144 63.5182 21.6135C63.8637 21.8072 64.231 21.9039 64.6204 21.9039C65.0371 21.9039 65.4101 21.8044 65.7391 21.6052C66.0681 21.4061 66.3285 21.1268 66.5205 20.7673C66.7123 20.4022 66.8084 19.979 66.8084 19.4978C66.8084 19.0166 66.7123 18.5963 66.5205 18.2367C66.3285 17.8716 66.0681 17.5895 65.7391 17.3904C65.4101 17.1858 65.0371 17.0834 64.6204 17.0834C64.231 17.0834 63.8637 17.183 63.5182 17.3821C63.1782 17.5812 62.9013 17.8605 62.6874 18.2201C62.4735 18.5797 62.3666 19.0055 62.3666 19.4978ZM73.0458 19.7882C73.0514 20.1976 73.1391 20.5709 73.309 20.9083C73.4791 21.2457 73.7313 21.514 74.0658 21.7131C74.4058 21.9122 74.8225 22.0118 75.316 22.0118C75.7329 22.0118 76.0866 21.9509 76.3771 21.8293C76.6732 21.702 76.9146 21.5526 77.101 21.3812C77.2875 21.2042 77.4218 21.0465 77.504 20.9083L78.2032 21.7795C78.0222 22.045 77.8001 22.2773 77.5369 22.4764C77.2793 22.6755 76.9639 22.8277 76.591 22.9328C76.2182 23.0434 75.763 23.0987 75.2256 23.0987C74.5017 23.0987 73.8739 22.9439 73.3419 22.6341C72.8155 22.3188 72.4098 21.8845 72.1245 21.3314C71.8394 20.7727 71.6968 20.1339 71.6968 19.4148C71.6968 18.7511 71.8312 18.1537 72.0999 17.6227C72.3687 17.0862 72.7579 16.6631 73.2679 16.3533C73.7835 16.0435 74.403 15.8886 75.1269 15.8886C75.7905 15.8886 76.3663 16.0297 76.8542 16.3118C77.3477 16.5884 77.7289 16.981 77.9976 17.49C78.2718 17.9989 78.4088 18.6072 78.4088 19.3153C78.4088 19.3596 78.4062 19.4397 78.4006 19.5559C78.3952 19.6666 78.3897 19.7439 78.3842 19.7882H73.0458ZM77.0434 18.7013C77.038 18.4745 76.9722 18.2256 76.846 17.9546C76.7254 17.6836 76.528 17.4513 76.2537 17.2576C75.9797 17.064 75.6095 16.9673 75.1433 16.9673C74.6608 16.9673 74.2714 17.0613 73.9753 17.2493C73.6848 17.4374 73.4709 17.667 73.3337 17.938C73.1967 18.2035 73.1172 18.4579 73.0951 18.7013H77.0434ZM82.8189 19.7882C82.8243 20.1976 82.912 20.5709 83.0821 20.9083C83.252 21.2457 83.5042 21.514 83.8388 21.7131C84.1787 21.9122 84.5956 22.0118 85.0891 22.0118C85.5058 22.0118 85.8595 21.9509 86.1502 21.8293C86.4463 21.702 86.6875 21.5526 86.874 21.3812C87.0604 21.2042 87.1948 21.0465 87.2771 20.9083L87.9762 21.7795C87.7953 22.045 87.5732 22.2773 87.31 22.4764C87.0522 22.6755 86.7368 22.8277 86.364 22.9328C85.9911 23.0434 85.5359 23.0987 84.9986 23.0987C84.2748 23.0987 83.6468 22.9439 83.115 22.6341C82.5885 22.3188 82.1827 21.8845 81.8976 21.3314C81.6123 20.7727 81.4699 20.1339 81.4699 19.4148C81.4699 18.7511 81.6041 18.1537 81.8729 17.6227C82.1416 17.0862 82.531 16.6631 83.0409 16.3533C83.5564 16.0435 84.1761 15.8886 84.8999 15.8886C85.5634 15.8886 86.1392 16.0297 86.6273 16.3118C87.1208 16.5884 87.5018 16.981 87.7706 17.49C88.0447 17.9989 88.1819 18.6072 88.1819 19.3153C88.1819 19.3596 88.1791 19.4397 88.1737 19.5559C88.1681 19.6666 88.1626 19.7439 88.1572 19.7882H82.8189ZM86.8164 18.7013C86.8109 18.4745 86.745 18.2256 86.619 17.9546C86.4983 17.6836 86.3009 17.4513 86.0268 17.2576C85.7526 17.064 85.3824 16.9673 84.9164 16.9673C84.4337 16.9673 84.0445 17.0613 83.7483 17.2493C83.4576 17.4374 83.2438 17.667 83.1067 17.938C82.9695 18.2035 82.8901 18.4579 82.8682 18.7013H86.8164Z" fill="white"/>
<path d="M34.3838 13.3272C34.8964 13.1401 35.1642 12.5679 34.9502 12.0622C33.4776 8.58212 30.932 5.66165 27.6785 3.74323C24.1404 1.65689 19.9891 0.887724 15.9468 1.56953C11.9046 2.25134 8.22716 4.34097 5.5544 7.47491C2.88165 10.6088 1.38266 14.5887 1.31824 18.7222C1.25381 22.8556 2.62802 26.8811 5.2018 30.0983C7.77556 33.3154 11.386 35.5206 15.405 36.3302C19.424 37.1399 23.5973 36.5027 27.1988 34.5296C30.5104 32.7154 33.1457 29.877 34.7259 26.4454C34.9556 25.9467 34.7059 25.3663 34.1994 25.163L33.6297 24.9345C33.1231 24.7314 32.5521 24.9826 32.3177 25.4789C30.9644 28.3442 28.7437 30.7136 25.964 32.2365C22.8942 33.9182 19.3373 34.4614 15.9117 33.7712C12.4861 33.0811 9.40884 31.2015 7.21511 28.4595C5.02138 25.7174 3.85009 22.2863 3.905 18.7632C3.95991 15.2401 5.23755 11.8479 7.51564 9.17673C9.79374 6.50556 12.9281 4.72447 16.3735 4.14334C19.8189 3.56221 23.3571 4.2178 26.3729 5.99606C29.1038 7.60637 31.2497 10.045 32.513 12.9517C32.7319 13.4553 33.2947 13.7245 33.8073 13.5375L34.3838 13.3272Z" fill="#D9D9D9"/>
<path d="M6.43686 30.0311C6.02802 30.3949 5.98697 31.0262 6.37002 31.4175C7.87943 32.9593 9.6592 34.2101 11.6219 35.1047C13.8849 36.1362 16.3394 36.6705 18.8228 36.6725C21.306 36.6745 23.7614 36.144 26.0258 35.116C27.9901 34.2246 29.7717 32.9765 31.2836 31.4371C31.6672 31.0465 31.6271 30.4151 31.2188 30.0507L30.7598 29.641C30.3515 29.2766 29.7299 29.3177 29.3425 29.7045C28.0763 30.969 26.5939 31.9967 24.9643 32.7362C23.0341 33.6124 20.9413 34.0646 18.8247 34.0629C16.7081 34.0613 14.6161 33.6058 12.6872 32.7266C11.0587 31.9844 9.57798 30.9544 8.31374 29.688C7.92692 29.3005 7.3054 29.2585 6.89656 29.6222L6.43686 30.0311Z" fill="#ED4545"/>
<path d="M12.6673 24.0611L18.4416 10.0202C18.5531 9.74883 18.9335 9.7467 19.048 10.0167L25.0056 24.0611" stroke="#ED4545" stroke-width="3.5" stroke-linecap="round"/>
</g>
<defs>
<clipPath id="clip0_1239_401">
<rect width="88" height="38" fill="white"/>
</clipPath>
</defs>
</svg>
